Coordinates
version=1
nRows=29
nColumns=24
inDegrees=yes

Units are S.I. units (second, meters, Newtons, ...)
Angles are in degrees.

endheader
time	pelvis_tilt	pelvis_list	pelvis_rotation	pelvis_tx	pelvis_ty	pelvis_tz	hip_flexion_r	hip_adduction_r	hip_rotation_r	knee_angle_r	ankle_angle_r	subtalar_angle_r	mtp_angle_r	hip_flexion_l	hip_adduction_l	hip_rotation_l	knee_angle_l	ankle_angle_l	subtalar_angle_l	mtp_angle_l	lumbar_extension	lumbar_bending	lumbar_rotation
      0.62500000	      1.10329802	      8.82168179	     -1.48469901	     -0.81489898	      1.04806190	      0.30687741	     23.94436369	     -4.55804678	    -10.86768712	      1.93118916	      5.51580856	      0.42926641	      0.12141534	    -21.85815633	     13.79107616	     -1.86639170	     -1.44831527	      0.96123037	     -3.08682462	      0.35470747	      3.58431883	     -6.84196987	     -0.46360894
      0.62916667	      1.10265082	      8.78626620	     -1.37473483	     -0.80883625	      1.04795886	      0.30666377	     23.81540259	     -4.56033021	    -10.68015796	      1.54527340	      5.54667803	      0.42297534	      0.12797103	    -21.99126528	     13.69600545	     -1.81252688	     -1.85054581	      0.87091425	     -3.07353388	      0.37030487	      3.64706908	     -6.75164070	     -0.48708670
      0.63333333	      1.14545154	      8.67847825	     -1.30425874	     -0.80257694	      1.04793653	      0.30654206	     23.57477857	     -4.47246616	    -10.23155942	      1.22404893	      5.82424035	      0.21797469	      0.15184349	    -22.19659982	     13.52900722	     -1.71138175	     -2.18418193	      0.46153318	     -2.98932367	      0.43704875	      3.61612055	     -6.54590005	     -0.59394686
      0.63750000	      1.16181812	      8.64320792	     -1.20225984	     -0.79648317	      1.04788105	      0.30636333	     23.41818845	     -4.47303970	    -10.04085289	      0.81564529	      5.82081838	      0.16007932	      0.15755563	    -22.31820700	     13.43341493	     -1.72838423	     -2.63112094	      0.35310900	     -3.00237792	      0.45593649	      3.67973713	     -6.47214790	     -0.61424630
      0.64166667	      1.22561709	      8.50142692	     -1.15358402	     -0.79008532	      1.04794173	      0.30637673	     23.10261146	     -4.33223082	     -9.44151764	      0.56615010	      5.95577296	     -0.27866145	      0.18247287	    -22.50954147	     13.22533309	     -1.78061605	     -3.01597194	     -0.24835598	     -2.91630850	      0.55393444	      3.60601033	     -6.25071314	     -0.73611204
      0.64583333	      1.43664206	      8.40758677	     -1.22184881	     -0.78398578	      1.04811255	      0.30658988	     22.69444659	     -4.20185773	     -8.81932904	      0.26508655	      5.72620834	     -1.22962545	      0.22864494	    -22.80364528	     13.10456873	     -2.05069226	     -3.45658197	     -0.65773353	     -2.85793862	      0.81876152	      3.44670536	     -6.13033533	     -0.85729468
      0.65000000	      1.41379091	      8.35660483	     -1.07249248	     -0.77773532	      1.04812146	      0.30642121	     22.51493476	     -4.19551180	     -8.61685634	     -0.05955014	      5.68096605	     -1.22694457	      0.23442055	    -22.84540806	     12.96112132	     -2.03373407	     -3.98770579	     -0.74684986	     -2.84881976	      0.84347915	      3.51294234	     -6.05386152	     -0.85850707
      0.65416667	      1.46996561	      8.20533681	     -1.02268053	     -0.77125319	      1.04823295	      0.30648079	     22.19592342	     -4.04105373	     -8.20598004	     -0.27515209	      5.45192268	     -1.70211609	      0.26787024	    -22.98350816	     12.73404821	     -2.20359657	     -4.44440945	     -1.39958548	     -2.59772929	      1.04030276	      3.56006999	     -5.78205388	     -0.93053799
      0.65833333	      1.53950399	      8.06388889	     -0.96183958	     -0.76482528	      1.04839945	      0.30659095	     21.84869891	     -3.89569748	     -7.77061135	     -0.44949249	      5.08661686	     -2.22547712	      0.31282170	    -23.09457268	     12.50506997	     -2.45733144	     -4.97966695	     -1.84389159	     -2.40215241	      1.31853958	      3.52312151	     -5.60170035	     -0.98358308
      0.66250000	      1.58693192	      7.92123737	     -0.87426621	     -0.75835804	      1.04858263	      0.30664286	     21.52346489	     -3.75997511	     -7.48010911	     -0.62264148	      4.77041188	     -2.61422777	      0.35927587	    -23.16618430	     12.26454111	     -2.66684652	     -5.55392822	     -2.25780107	     -2.20596052	      1.59831514	      3.52615933	     -5.40986119	     -1.01861875
      0.66666667	      1.62851841	      7.78801543	     -0.78993520	     -0.75191001	      1.04877835	      0.30669504	     21.20616188	     -3.63456185	     -7.23117015	     -0.78241118	      4.36865343	     -2.91561808	      0.40410285	    -23.20625916	     12.03283355	     -2.89184835	     -6.16193948	     -2.71562868	     -2.02764978	      1.86811671	      3.54904903	     -5.22152408	     -1.05705456
      0.67083333	      1.62411470	      7.72606907	     -0.66472050	     -0.74563652	      1.04894426	      0.30662438	     20.96754921	     -3.60857318	     -7.08426990	     -0.98317663	      4.25535893	     -2.90911780	      0.41211992	    -23.16090241	     11.86498626	     -2.96199204	     -6.86201621	     -2.87205069	     -2.02716653	      1.90885634	      3.60426286	     -5.13086604	     -1.06083798
      0.67500000	      1.81159624	      7.45388484	     -0.66918786	     -0.73898174	      1.04937758	      0.30707042	     20.40610580	     -3.28277965	     -6.53715940	     -0.94628062	      3.32487850	     -4.12231958	      0.57579402	    -23.31679845	     11.47828444	     -3.56340010	     -7.49948607	     -3.58389389	     -1.52024940	      2.86140069	      3.40604461	     -4.80178411	     -1.17071668
      0.67916667	      1.77746391	      7.28276006	     -0.51876588	     -0.73232584	      1.04961208	      0.30701330	     20.14142599	     -3.14010984	     -6.55920412	     -1.04946424	      2.88701028	     -4.06641092	      0.61117865	    -23.22097639	     11.17331797	     -3.77608097	     -8.21360554	     -4.19861325	     -1.36379793	      3.05525382	      3.52487900	     -4.59656969	     -1.18246675
      0.68333333	      1.80238463	      7.11858910	     -0.44762486	     -0.72577071	      1.04988952	      0.30703276	     19.85001685	     -2.98577244	     -6.55861880	     -1.19213904	      2.29761762	     -4.17802505	      0.65675554	    -23.15330060	     10.90251583	     -4.09969500	     -8.95935079	     -4.87367529	     -1.18444128	      3.31449834	      3.62586623	     -4.31823966	     -1.22858193
      0.68750000	      1.94842623	      6.90442961	     -0.36905626	     -0.71923275	      1.05037750	      0.30721709	     19.34630728	     -2.77226790	     -6.14410243	     -1.16275453	      1.52031226	     -4.85734920	      0.83561926	    -23.19639789	     10.54561055	     -4.40187899	     -9.73384924	     -5.49507251	     -0.89147836	      4.26769739	      3.54628453	     -4.01422566	     -1.30987638
      0.69166667	      1.93626412	      6.74720384	     -0.29664190	     -0.71270063	      1.05063548	      0.30728425	     19.13959994	     -2.61833735	     -6.36831428	     -1.38356142	      1.05856553	     -4.92430935	      0.88532098	    -23.01920319	     10.26737529	     -4.83510973	    -10.60422229	     -6.14549959	     -0.76216653	      4.53519181	      3.61941257	     -3.82804293	     -1.32780631
      0.69583333	      1.95020501	      6.55125946	     -0.19319748	     -0.70606802	      1.05099085	      0.30731127	     18.84987509	     -2.43892381	     -6.40081668	     -1.50743484	      0.45357957	     -5.02020216	      0.93820310	    -22.86341065	      9.92780158	     -5.17262572	    -11.48326732	     -6.89799237	     -0.59167666	      4.82332286	      3.68847815	     -3.54548076	     -1.37126343
      0.70000000	      1.98815459	      6.35519511	     -0.11719818	     -0.69949907	      1.05136170	      0.30739125	     18.55836787	     -2.25102623	     -6.42978274	     -1.66445590	     -0.16648084	     -5.22991706	      1.00022439	    -22.70134697	      9.58965281	     -5.54073343	    -12.40903612	     -7.66517403	     -0.43699987	      5.16317983	      3.73369469	     -3.27262109	     -1.41756456
      0.70416667	      2.02685339	      6.15372912	     -0.03334926	     -0.69294625	      1.05175537	      0.30749447	     18.27251652	     -2.05898412	     -6.46434119	     -1.83569466	     -0.75375163	     -5.45964265	      1.06316614	    -22.50938143	      9.23195862	     -5.91482705	    -13.38887280	     -8.43994811	     -0.29895028	      5.50772507	      3.75293724	     -3.00068755	     -1.46305636
      0.70833333	      2.06841216	      5.94686221	      0.03749457	     -0.68641006	      1.05215515	      0.30761174	     17.99750945	     -1.86033560	     -6.49390911	     -2.03301606	     -1.33586564	     -5.69824084	      1.13028559	    -22.29372094	      8.86749979	     -6.28272503	    -14.41023352	     -9.23801019	     -0.17668131	      5.87511951	      3.77545915	     -2.71810285	     -1.50539789
      0.71250000	      2.11647748	      5.74171133	      0.10501625	     -0.67992600	      1.05256827	      0.30773679	     17.73252697	     -1.66453201	     -6.54024186	     -2.26033773	     -1.87689944	     -5.92712589	      1.19623064	    -22.05090121	      8.49937477	     -6.64768723	    -15.48207539	    -10.03957795	     -0.08330338	      6.23671918	      3.78058709	     -2.44272337	     -1.54232918
      0.71666667	      2.16866485	      5.52200622	      0.17068837	     -0.67345884	      1.05299594	      0.30787720	     17.47003000	     -1.45596117	     -6.59598896	     -2.50395582	     -2.41600038	     -6.15200130	      1.26630125	    -21.78616357	      8.10831771	     -7.00097571	    -16.59632623	    -10.89393187	     -0.01090103	      6.62125149	      3.78956639	     -2.14267456	     -1.57668059
      0.72083333	      2.22341536	      5.29981120	      0.22268140	     -0.66706285	      1.05342522	      0.30803668	     17.22652209	     -1.24327547	     -6.66520708	     -2.78537673	     -2.91005015	     -6.36160262	      1.33559733	    -21.49032502	      7.71435626	     -7.34472972	    -17.76418666	    -11.73911923	      0.02670524	      7.00225847	      3.78514133	     -1.84122069	     -1.60683899
      0.72500000	      2.27632756	      5.06106731	      0.32034929	     -0.66064605	      1.05388609	      0.30822101	     16.94309628	     -1.02433862	     -6.56571315	     -2.99129900	     -3.47923808	     -6.65185782	      1.46492031	    -21.17024509	      7.27038190	     -7.60618749	    -18.95743090	    -12.73720410	     -0.04989617	      7.69687454	      3.83522542	     -1.55575274	     -1.60534727
      0.72916667	      2.29443124	      4.85920205	      0.34070342	     -0.65447156	      1.05423533	      0.30848642	     16.79852225	     -0.82685355	     -6.69803212	     -3.38436501	     -3.65399017	     -6.67069738	      1.49205028	    -20.75333503	      6.89228146	     -7.96944063	    -20.27341158	    -13.15945331	     -0.05189667	      7.83805718	      3.67860097	     -1.36391257	     -1.62806591
      0.73333333	      2.36306228	      4.65076427	      0.32120883	     -0.64834648	      1.05465044	      0.30879978	     16.58454553	     -0.61795700	     -6.62522669	     -3.70179806	     -4.46861450	     -7.33938139	      1.84469656	    -20.37785556	      6.51860725	     -8.29400210	    -21.51535380	    -14.66303910	     -0.67984397	      9.70672937	      3.68676791	     -1.06791892	     -1.55106182
      0.73750000	      2.40434798	      4.36216796	      0.35793637	     -0.64195170	      1.05506129	      0.30899561	     16.39117734	     -0.34411858	     -6.89465764	     -4.08311770	     -4.63410266	     -7.19173609	      1.90855190	    -19.97101246	      6.03426150	     -8.60203868	    -22.83022737	    -15.39984385	     -0.34441890	     10.01986033	      3.75358979	     -0.60570545	     -1.59285909
      0.74166667	      2.43727811	      4.12225703	      0.34600203	     -0.63583812	      1.05541201	      0.30930573	     16.23696586	     -0.11218306	     -6.97697816	     -4.47921919	     -4.83441573	     -7.06748409	      6.30604672	    -19.50864912	      5.61276907	     -8.88671444	    -24.13811683	    -16.75518672	     -0.85295442	     31.71133331	      3.72118890	     -0.28666115	     -1.16244947
